# xmcd
#
# Track frame offsets:
#	150
#	14063
#	28421
#	46224
#	60557
#	74600
#	90703
#	106686
#	120799
#	137419
#	155447
#	166940
#	185210
#	204268
#	216363
#	232821
#	247384
#	263162
#	278485
#	292255
#	305333
#
# Disc length: 4230 seconds
#
# Revision: 1
# Processed by: cddbd v1.5.2PL0 Copyright (c) Steve Scherf et al.
# Submitted via: audiograbber 1.83.01
#
DISCID=33108415
DTITLE=Various Artist - Halland's Country Hits Volume 1
DYEAR=1900
DGENRE=
TTITLE0=Randy Travis - If I Didn't Have You
TTITLE1=Randy Travis - Is It Still Over
TTITLE2=Randy Travis - It's Just A Matter Of Time
TTITLE3=Randy Travis - Look Heart, No Hands
TTITLE4=Randy Travis - On The Other Hand
TTITLE5=Randy Travis - Point Of Light
TTITLE6=Travis Tritt - Can I Trust You With My Heart
TTITLE7=Travis Tritt - Country Club
TTITLE8=Travis Tritt - Drift Off To Dream
TTITLE9=Travis Tritt - Help Me Hold On
TTITLE10=Travis Tritt - Here's A Quarter (Call Someone...)
TTITLE11=Travis Tritt - I'm Gonna Be Somebody
TTITLE12=Travis Tritt - Lord Have Mercy On The Working Man
TTITLE13=Travis Tritt With Marty Stuart - The Whiskey Ain't Workin'
TTITLE14=Tanya Tucker With Paul Overstreet - I Won't Take Less Than Your Love
TTITLE15=Tanya Tucker With T.G. Brown - Don't Go Out
TTITLE16=Tanya Tucker - Down To My Last Teardrop
TTITLE17=Tanya Tucker - If It Don't Come Easy
TTITLE18=Tanya Tucker - If Your Heart Ain't Busy Tonight
TTITLE19=Tanya Tucker - It Won't Be Me
TTITLE20=Tanya Tucker - It's A Little Too Late
EXTD=
EXTT0=
EXTT1=
EXTT2=
EXTT3=
EXTT4=
EXTT5=
EXTT6=
EXTT7=
EXTT8=
EXTT9=
EXTT10=
EXTT11=
EXTT12=
EXTT13=
EXTT14=
EXTT15=
EXTT16=
EXTT17=
EXTT18=
EXTT19=
EXTT20=
PLAYORDER=
